<?xml version="1.0" standalone="no"?>
<!DOCTYPE svg PUBLIC "-//W3C//DTD SVG 20010904//EN"
 "http://www.w3.org/TR/2001/REC-SVG-20010904/DTD/svg10.dtd">
<svg version="1.0" xmlns="http://www.w3.org/2000/svg"
 width="700.000000pt" height="700.000000pt" viewBox="0 0 700.000000 700.000000"
 preserveAspectRatio="xMidYMid meet">
<metadata>
Created by potrace 1.11, written by Peter Selinger 2001-2013
</metadata>
<g transform="translate(0.000000,700.000000) scale(0.100000,-0.100000)"
fill="#000000" stroke="none">
<path d="M2145 6701 c-83 -37 -132 -124 -122 -214 16 -128 141 -211 267 -177
32 8 59 26 93 61 26 27 50 49 53 49 12 0 138 -92 197 -144 233 -202 457 -598
582 -1026 36 -125 78 -301 73 -305 -2 -1 -48 -14 -103 -28 -234 -58 -457 -186
-657 -377 l-89 -85 -92 84 c-527 480 -1060 649 -1474 466 -198 -88 -434 -321
-543 -536 -39 -76 -94 -237 -116 -339 -27 -126 -25 -366 4 -475 63 -229 209
-426 426 -570 172 -114 442 -223 691 -280 l100 -23 -55 -5 c-30 -4 -104 -11
-165 -17 -800 -79 -1234 -487 -1201 -1130 9 -196 44 -337 121 -492 68 -139
131 -226 239 -333 143 -142 272 -211 467 -251 120 -24 365 -15 509 19 262 63
526 182 802 363 53 35 99 64 101 64 3 0 35 -40 71 -90 216 -290 506 -507 797
-594 147 -43 198 -51 364 -51 115 0 183 5 242 18 367 79 680 294 942 650 61
84 65 87 85 72 159 -113 439 -264 621 -334 127 -49 293 -94 413 -111 120 -18
356 -8 452 18 225 62 412 202 549 411 136 207 195 391 208 643 22 433 -169
763 -553 956 -164 83 -413 149 -649 172 -60 6 -135 13 -165 17 l-55 5 100 23
c249 57 519 166 691 280 217 144 363 341 426 570 29 109 31 349 4 475 -22 102
-77 263 -116 339 -80 159 -255 356 -401 454 -147 98 -280 143 -452 153 -353
22 -801 -192 -1204 -574 l-72 -68 -83 84 c-240 242 -557 405 -835 429 -62 5
-73 9 -73 24 0 34 69 284 115 418 127 370 296 655 507 857 88 84 209 174 233
174 5 0 20 -16 33 -36 34 -52 118 -88 184 -81 64 8 121 41 155 90 25 35 28 50
28 117 0 67 -3 82 -28 119 -61 92 -200 118 -291 54 -43 -31 -86 -94 -86 -129
0 -16 -23 -36 -88 -77 -175 -111 -310 -248 -445 -450 -177 -264 -332 -658
-412 -1043 -5 -22 -62 -42 -75 -27 -4 5 -22 71 -40 148 -119 508 -344 945
-621 1210 -73 70 -256 205 -278 205 -4 0 -12 20 -19 44 -23 88 -111 156 -202
156 -25 0 -63 -9 -85 -19z m153 -97 c31 -21 55 -78 47 -115 -8 -37 -56 -85
-92 -92 -37 -7 -98 19 -119 51 -9 14 -17 43 -17 63 0 95 100 146 181 93z
m2355 12 c72 -30 97 -104 55 -166 -44 -65 -126 -70 -180 -10 -40 43 -38 97 2
144 27 30 40 37 83 45 4 0 22 -5 40 -13z m-3283 -1641 c126 -19 229 -53 375
-124 190 -93 372 -223 570 -404 l70 -65 -33 -43 c-160 -216 -306 -489 -377
-709 -9 -30 -20 -58 -24 -62 -6 -7 -131 36 -236 82 -199 87 -274 113 -336 117
-64 5 -68 4 -84 -21 -17 -26 -17 -28 2 -54 12 -16 36 -31 61 -37 l40 -10 -63
-27 -63 -26 -21 56 c-11 32 -25 102 -32 157 -14 126 -29 159 -88 192 -25 15
-73 46 -106 69 -88 62 -276 174 -302 180 -47 12 -92 -44 -65 -81 4 -6 52 -36
107 -66 80 -45 282 -177 317 -208 4 -3 12 -49 19 -101 10 -80 30 -155 63 -231
5 -10 -1 -19 -17 -26 -20 -9 -30 -8 -53 8 -73 49 -225 130 -281 149 -67 23
-92 18 -113 -21 -17 -30 10 -64 67 -84 105 -39 261 -121 296 -156 31 -33 66
-35 121 -6 93 47 223 106 252 113 16 4 54 18 84 31 l54 24 61 -26 c33 -15 74
-33 92 -41 17 -8 34 -14 38 -14 3 0 39 -14 79 -30 l73 -30 -28 -121 c-15 -67
-31 -146 -35 -175 -3 -30 -7 -54 -9 -54 -1 0 -20 7 -41 16 -47 20 -146 39
-310 62 l-121 16 -64 -31 c-35 -17 -78 -37 -95 -43 -54 -20 -68 -86 -24 -110
27 -14 101 4 151 37 l41 27 121 -17 c67 -9 158 -24 202 -33 44 -9 90 -16 103
-16 22 0 22 -2 16 -82 -3 -44 -7 -87 -10 -93 -5 -19 -43 -16 -216 13 -752 126
-1180 403 -1294 839 -30 113 -26 329 9 468 66 267 206 491 404 648 197 156
405 212 653 174z m4618 -15 c210 -59 402 -210 556 -440 61 -90 119 -229 153
-367 35 -139 39 -355 9 -468 -98 -374 -428 -632 -990 -775 -130 -33 -349 -74
-506 -95 l-45 -6 -16 148 -16 148 31 28 c32 28 165 96 226 115 40 13 197 48
253 57 57 9 124 41 137 64 13 25 0 55 -32 72 -16 9 -32 8 -72 -4 -62 -19 -188
-48 -192 -44 -2 2 -4 23 -6 47 l-3 43 55 22 c30 12 89 38 131 58 42 20 85 37
95 37 10 1 44 9 74 20 30 11 69 20 85 20 36 0 89 31 105 59 12 24 0 55 -28 70
-22 11 -258 -48 -340 -85 -31 -14 -79 -36 -107 -49 -27 -13 -67 -28 -88 -35
-20 -6 -54 -27 -74 -46 l-36 -34 7 -65 c4 -36 9 -71 12 -78 3 -9 -18 -23 -63
-43 -37 -16 -96 -43 -131 -61 -42 -21 -64 -28 -66 -20 -2 7 -18 71 -36 142
-42 169 -106 348 -184 510 -44 93 -59 134 -52 141 6 6 47 27 91 48 72 34 80
36 91 21 7 -9 10 -23 7 -30 -8 -22 54 -141 89 -170 31 -26 34 -27 147 -22 104
3 413 41 430 51 4 3 47 10 97 16 49 6 111 18 138 26 64 18 63 19 69 -15 5 -22
15 -32 47 -45 73 -29 111 -20 178 42 l42 40 0 83 c0 127 -34 178 -118 179 -58
0 -98 -27 -141 -95 -30 -47 -47 -64 -68 -68 -88 -17 -277 -49 -333 -57 -36 -5
-99 -14 -140 -21 -41 -6 -121 -13 -176 -16 l-102 -5 -25 43 c-26 46 -41 105
-29 113 4 2 68 12 142 21 155 20 173 25 195 59 13 19 14 29 5 45 -19 36 -40
39 -148 23 -57 -8 -105 -13 -107 -10 -2 2 1 34 8 72 l11 68 51 25 c27 14 52
29 53 34 7 18 22 8 22 -13 1 -35 36 -105 62 -121 25 -16 327 -37 538 -37 104
0 112 1 135 25 31 30 31 40 2 69 -22 22 -31 23 -252 29 -127 4 -259 10 -295
13 -70 7 -69 6 -91 83 -3 11 14 20 61 33 93 25 122 66 79 109 -17 17 -28 20
-62 15 -48 -8 -155 -54 -238 -102 -33 -20 -80 -45 -105 -55 -24 -11 -51 -31
-60 -44 -15 -22 -37 -137 -38 -197 -1 -30 -14 -38 -93 -58 -23 -6 -54 -17 -70
-25 -15 -8 -32 -15 -37 -15 -5 0 -37 -18 -71 -39 l-62 -39 -18 31 c-10 18 -45
70 -79 116 l-60 85 79 74 c401 372 793 562 1130 547 56 -3 132 -14 173 -25z
m-1291 -892 c77 -130 113 -202 168 -336 70 -173 155 -467 138 -483 -5 -4 -87
-30 -183 -57 -739 -211 -1555 -254 -2390 -126 -158 24 -467 88 -478 98 -9 10
50 252 97 396 27 80 73 200 103 266 61 135 176 334 192 334 6 0 47 -11 91 -25
372 -116 923 -143 1530 -74 175 19 557 80 619 98 17 5 36 10 42 10 6 1 38 -45
71 -101z m1443 34 c0 -26 -5 -53 -12 -60 -14 -14 -54 -16 -62 -4 -6 11 52 112
64 112 6 0 10 -22 10 -48z m-4330 -1501 l0 -88 -30 -7 c-27 -5 -113 -54 -231
-133 -62 -41 -171 -81 -251 -92 -92 -13 -122 -25 -137 -58 -24 -53 14 -90 77
-74 20 5 58 12 85 15 l47 6 0 -69 0 -69 -32 -5 c-95 -15 -179 -45 -313 -112
-81 -41 -149 -75 -151 -75 -2 0 -15 26 -29 59 -17 37 -36 63 -51 70 -38 17
-124 13 -169 -8 -60 -27 -80 -55 -80 -110 0 -40 6 -56 39 -99 43 -56 62 -66
149 -81 61 -11 95 -2 139 36 9 9 88 51 175 94 150 75 158 78 165 58 7 -19 39
-236 42 -283 1 -14 -25 -27 -134 -67 -74 -27 -141 -49 -148 -49 -7 0 -47 -16
-88 -35 -97 -45 -249 -105 -269 -105 -8 0 -15 4 -15 9 0 20 -70 41 -136 41
-65 0 -68 -1 -105 -39 -36 -39 -79 -131 -79 -172 0 -61 83 -139 147 -139 38 0
116 60 138 106 9 19 21 34 27 34 7 0 23 11 37 24 35 33 465 202 651 257 36 10
73 28 83 40 19 24 22 81 7 156 -5 26 -14 86 -20 133 -6 47 -13 97 -16 111 -6
25 -3 27 41 34 104 15 115 33 115 185 l0 109 33 17 c17 9 48 29 67 44 19 15
46 31 60 35 24 7 78 44 109 73 7 7 23 12 35 10 19 -3 22 -13 33 -133 24 -240
93 -529 180 -750 49 -128 50 -125 -27 -153 -36 -13 -79 -28 -97 -33 -17 -5
-65 -23 -105 -40 -40 -17 -115 -46 -166 -65 -51 -18 -106 -41 -122 -51 -37
-22 -56 -64 -41 -91 18 -33 46 -35 105 -7 30 14 85 36 123 49 37 14 113 43
167 65 54 23 129 52 165 65 36 12 73 26 81 29 11 5 28 -18 67 -92 l51 -99
-106 -70 c-382 -252 -742 -382 -1058 -382 -200 0 -335 37 -478 130 -200 130
-372 390 -433 650 -23 98 -27 138 -27 275 0 134 3 175 22 250 96 384 414 626
943 714 173 29 292 38 532 40 l207 1 0 -89z m3885 79 c587 -50 957 -236 1120
-565 69 -140 90 -238 89 -430 -1 -200 -29 -338 -99 -484 -137 -284 -328 -459
-577 -532 -106 -31 -321 -37 -460 -14 -270 45 -583 177 -883 372 -55 36 -102
67 -104 69 -5 5 31 74 41 80 4 3 31 -7 60 -22 64 -32 243 -91 318 -104 30 -5
80 -14 110 -19 30 -6 100 -18 155 -27 91 -14 123 -21 192 -39 25 -7 73 32 73
58 0 47 -55 69 -235 93 -49 7 -49 7 -20 17 17 5 92 34 167 63 295 116 303 118
409 79 70 -26 178 -56 249 -68 l65 -12 6 -49 c7 -63 38 -91 110 -101 42 -6 56
-4 78 12 37 28 61 80 61 137 0 43 -4 53 -39 87 -40 40 -74 49 -111 29 -29 -16
-232 27 -385 80 -93 33 -163 37 -227 11 -259 -103 -398 -154 -455 -167 -78
-18 -93 -28 -93 -60 0 -22 -2 -23 -52 -17 -52 6 -149 33 -260 72 -47 16 -71
28 -116 57 -2 1 17 49 42 106 61 142 118 310 152 453 15 66 28 121 29 122 0 1
43 -7 95 -18 52 -12 127 -25 165 -29 39 -5 88 -15 110 -21 l40 -12 -4 -79 c-2
-44 0 -104 4 -135 12 -98 39 -111 336 -162 97 -17 189 -35 204 -41 14 -5 45
-10 67 -10 42 0 146 -15 208 -30 141 -34 172 -32 185 10 15 46 -35 87 -122
101 -32 5 -80 14 -108 20 -27 6 -84 14 -125 18 -41 5 -115 16 -165 26 -49 9
-148 28 -220 41 -71 14 -132 27 -135 30 -3 3 -7 50 -10 105 l-5 100 25 -6 c14
-2 66 -9 115 -15 50 -6 113 -17 140 -24 28 -8 102 -24 165 -36 63 -11 126 -23
140 -26 76 -14 140 -40 140 -56 0 -10 13 -32 28 -49 24 -27 37 -33 84 -37 51
-4 59 -1 109 33 109 75 117 155 19 205 -52 27 -92 25 -127 -4 l-28 -24 -85 19
c-147 34 -173 39 -235 49 -33 5 -114 21 -180 36 -66 14 -172 32 -235 40 -63 8
-140 18 -170 24 -30 5 -90 14 -133 19 -43 6 -83 14 -90 18 -6 4 -32 11 -57 15
-84 14 -110 20 -115 29 -3 4 1 63 10 131 8 67 15 144 15 171 l0 49 48 -5 c76
-9 233 -35 287 -47 l50 -12 -7 -96 c-4 -60 -3 -103 4 -115 21 -41 132 -72 398
-113 52 -8 106 -19 120 -24 56 -22 206 -48 283 -49 49 -1 62 3 82 24 14 13 25
29 25 35 0 6 -11 22 -25 35 -19 20 -35 25 -77 26 -67 1 -140 12 -248 38 -47
11 -141 30 -210 42 -69 11 -149 27 -177 35 l-53 15 0 71 0 71 28 -6 c16 -3 97
-9 179 -13 l151 -7 26 26 c32 32 32 42 1 72 -21 22 -33 25 -97 25 -139 0 -377
25 -573 60 -66 12 -139 24 -162 27 l-43 5 0 57 c0 32 3 61 7 64 10 11 384 8
518 -3z m-665 -617 c-1 -75 -122 -487 -184 -625 l-25 -57 -98 -30 c-342 -105
-635 -165 -983 -203 -149 -16 -612 -16 -760 0 -253 27 -459 69 -667 134 l-132
41 -42 95 c-70 159 -191 553 -175 569 2 2 55 -7 118 -21 888 -198 1945 -173
2756 64 92 26 173 49 180 49 6 1 12 -7 12 -16z m-4290 -222 c17 -32 12 -51
-13 -51 -27 0 -72 43 -62 59 11 19 63 13 75 -8z m5745 -99 c-3 -3 -11 0 -18 7
-9 10 -8 11 6 5 10 -3 15 -9 12 -12z m-6005 -514 c0 -33 -43 -83 -63 -75 -22
8 -21 25 3 65 24 38 60 44 60 10z m6030 -58 c0 -5 -4 -10 -10 -10 -5 0 -10 5
-10 10 0 6 5 10 10 10 6 0 10 -4 10 -10z"/>
<path d="M754 4755 c-15 -23 -15 -27 0 -50 9 -14 44 -39 79 -56 34 -17 76 -41
92 -53 17 -13 51 -35 77 -50 47 -27 47 -27 231 -25 155 1 188 -1 209 -15 31
-20 143 -66 162 -66 20 0 50 -45 75 -110 20 -52 20 -70 0 -70 -6 0 -27 -11
-47 -25 -20 -14 -46 -25 -57 -25 -11 0 -52 24 -91 54 -128 98 -189 118 -220
71 -15 -23 -15 -27 -1 -49 9 -13 44 -40 79 -59 35 -19 84 -53 108 -75 57 -49
81 -62 119 -62 33 0 111 28 111 39 0 4 33 24 73 45 l74 37 64 -36 c35 -20 101
-55 147 -78 79 -40 84 -41 110 -26 21 12 27 22 27 49 0 30 -5 38 -40 57 -22
12 -56 27 -75 34 -19 6 -46 20 -60 29 -42 29 -142 80 -172 88 -24 6 -35 20
-60 77 -17 39 -39 82 -49 96 -19 27 -28 31 -129 63 -30 10 -75 31 -100 46
l-45 28 -194 2 -195 1 -65 43 c-89 59 -165 96 -195 96 -16 0 -32 -9 -42 -25z"/>
</g>
</svg>
